<svg xmlns="http://www.w3.org/2000/svg" version="1.1" xmlns:xlink="http://www.w3.org/1999/xlink" xmlns:svgjs="http://svgjs.com/svgjs" width="350.000000pt" height="350.000000pt"><svg version="1.0" xmlns="http://www.w3.org/2000/svg" width="350.000000pt" height="350.000000pt" viewBox="0 0 350.000000 350.000000" preserveAspectRatio="xMidYMid meet">

<g transform="translate(0.000000,350.000000) scale(0.100000,-0.100000)" fill="#000000" stroke="none">
<path d="M1670 3244 c-160 -15 -360 -70 -509 -140 -301 -141 -574 -414 -715
-715 -98 -209 -140 -401 -140 -639 0 -414 145 -762 438 -1056 224 -224 470
-355 781 -416 155 -31 395 -31 550 0 311 61 557 192 781 416 293 294 438 642
438 1056 0 414 -145 762 -438 1056 -223 223 -472 355 -775 414 -101 20 -320
32 -411 24z m-188 -1051 c3 -485 3 -488 26 -534 44 -89 143 -131 248 -103 64
16 98 35 197 107 l67 49 0 484 0 484 115 0 115 0 0 -527 c0 -543 3 -586 40
-623 64 -64 148 -15 174 102 11 47 15 53 40 56 l29 4 -8 -49 c-10 -71 -41
-153 -73 -192 -41 -50 -95 -75 -175 -79 -115 -7 -204 51 -242 157 -8 24 -15
57 -15 73 0 29 -1 29 -72 -37 -158 -144 -276 -202 -392 -193 -59 5 -156 44
-171 68 -36 59 -29 -135 11 -286 42 -156 51 -207 43 -241 -15 -71 -65 -116
-133 -117 -54 -1 -92 24 -117 77 -26 59 -24 118 12 254 16 65 34 168 39 228 6
61 10 383 10 718 l0 607 115 0 114 0 3 -487z"></path>
</g>
</svg><style>@media (prefers-color-scheme: light) { :root { filter: none; } }
</style></svg>